<svg width="20" height="20" viewBox="0 0 20 20" fill="none" xmlns="http://www.w3.org/2000/svg">
<g clip-path="url(#clip0_32_38)">
<path d="M4.51764 14.0148L5.39567 14.0148C4.97102 15.1921 4.55804 16.9218 5.11377 18.2783C5.44146 19.0783 6.06452 19.6472 6.91563 19.9231C7.07274 19.9743 7.23614 20 7.40073 20C8.5083 20 9.51053 18.9188 10.9751 16.1431C11.6332 14.8949 12.5804 13.8439 13.2474 13.2771C13.5305 13.0365 13.7568 12.7911 13.9402 12.5496C14.446 13.3013 15.3042 13.7966 16.2763 13.7966C17.8279 13.7966 19.0905 12.534 19.0905 10.9823L19.0905 2.81426C19.0905 1.26229 17.8279 -1.10379e-07 16.2763 -2.46031e-07C15.257 -3.3514e-07 14.3652 0.546753 13.8714 1.36045C13.2094 0.544059 12.1997 0.0206484 11.0691 0.0206483L4.17917 0.0206477C1.33409 0.0206474 0.909433 1.85692 0.909433 2.95132L0.909432 10.4059C0.909133 12.3957 2.52784 14.0148 4.51764 14.0148ZM15.2576 2.81426C15.2576 2.25255 15.7145 1.79557 16.276 1.79557C16.8377 1.79557 17.2946 2.25255 17.2946 2.81426L17.2946 10.9823C17.2946 11.544 16.8377 12.001 16.276 12.001C15.7145 12.001 15.2576 11.544 15.2576 10.9823L15.2576 2.81426ZM2.70471 2.95132C2.70471 2.28666 2.81065 1.81622 4.17887 1.81622L11.0688 1.81622C12.0683 1.81622 12.8817 2.62932 12.8817 3.62885L12.8817 10.4059L12.8793 10.4344L12.8856 10.487C12.8874 10.5158 12.9173 11.2011 12.0848 11.9085C11.2899 12.5843 10.1638 13.8313 9.38694 15.3055C8.15038 17.6487 7.56024 18.1045 7.40013 18.1907C7.0892 18.0745 6.89498 17.8893 6.77557 17.5978C6.38863 16.6533 6.87463 14.8374 7.55455 13.5317L8.23777 12.2195L4.51794 12.2195C3.5181 12.2195 2.70471 11.4061 2.70471 10.4062L2.70471 2.95132Z" fill="#444444"/>
</g>
<defs>
<clipPath id="clip0_32_38">
<rect width="20" height="20" fill="white" transform="translate(20 20) rotate(-180)"/>
</clipPath>
</defs>
</svg>
