<svg width="20" height="20" viewBox="0 0 20 20" fill="none" xmlns="http://www.w3.org/2000/svg">
<path d="M15.4823 5.98525H14.6043C15.0289 4.80795 15.4419 3.07821 14.8862 1.72166C14.5585 0.921728 13.9354 0.35283 13.0843 0.0769104C12.9272 0.0257366 12.7638 0 12.5992 0C11.4917 0 10.4894 1.08123 9.02485 3.85689C8.36677 5.10512 7.41961 6.15613 6.75255 6.72293C6.46945 6.96353 6.24321 7.20893 6.05976 7.45043C5.55401 6.69869 4.69572 6.20341 3.72372 6.20341C2.17204 6.20341 0.909454 7.466 0.909454 9.01767V17.1857C0.909454 18.7377 2.17204 20 3.72372 20C4.743 20 5.63481 19.4532 6.12859 18.6396C6.79056 19.4559 7.80027 19.9794 8.93088 19.9794H15.8208C18.6659 19.9794 19.0905 18.1431 19.0905 17.0487V9.59405C19.0908 7.60425 17.4721 5.98525 15.4823 5.98525ZM4.74241 17.1857C4.74241 17.7475 4.28543 18.2044 3.72402 18.2044C3.1623 18.2044 2.70533 17.7475 2.70533 17.1857V9.01767C2.70533 8.45596 3.1623 7.99898 3.72402 7.99898C4.28543 7.99898 4.74241 8.45596 4.74241 9.01767V17.1857ZM17.2953 17.0487C17.2953 17.7133 17.1893 18.1838 15.8211 18.1838H8.93118C7.93164 18.1838 7.11825 17.3707 7.11825 16.3711V9.59405L7.12064 9.56562L7.11436 9.51295C7.11256 9.48422 7.08264 8.79891 7.91518 8.09145C8.71003 7.41572 9.83615 6.16869 10.613 4.69453C11.8496 2.3513 12.4397 1.89553 12.5998 1.80934C12.9108 1.92545 13.105 2.1107 13.2244 2.40218C13.6113 3.34665 13.1253 5.16257 12.4454 6.46826L11.7622 7.78052H15.482C16.4819 7.78052 17.2953 8.59392 17.2953 9.59375V17.0487Z" fill="#444444"/>
</svg>
