<svg width="64" height="40" viewBox="0 0 64 40" fill="none" xmlns="http://www.w3.org/2000/svg">
<path d="M12.302 7.09778L4.91153 26.7209" stroke="#008CFF" stroke-width="4" stroke-miterlimit="10"/>
<path d="M3.56781 30.2888C5.53828 31.0309 7.73727 30.0351 8.47939 28.0646C9.22151 26.0942 8.22574 23.8952 6.25527 23.1531C4.2848 22.4109 2.08582 23.4067 1.34369 25.3772C0.601572 27.3476 1.59734 29.5466 3.56781 30.2888Z" fill="#444444"/>
<path d="M18.4629 12.3737L14.7347 22.2727C13.6214 25.2286 19.9065 30.3314 28.7744 33.6712C37.6423 37.0111 45.7321 37.3222 46.8453 34.3662L50.5735 24.4672" fill="white"/>
<path d="M18.4629 12.3737L14.7347 22.2727C13.6214 25.2286 19.9065 30.3314 28.7744 33.6712C37.6423 37.0111 45.7321 37.3222 46.8453 34.3662L50.5735 24.4672" stroke="#008CFF" stroke-width="4" stroke-miterlimit="10"/>
<path d="M38.2928 8.39831L13.194 7.43361L32.6934 23.2655L57.7921 24.2302L38.2928 8.39831Z" fill="white" stroke="#008CFF" stroke-width="4" stroke-miterlimit="10"/>
</svg>
