<svg width="232" height="65" viewBox="0 0 232 65" fill="none" xmlns="http://www.w3.org/2000/svg">
<path d="M17.096 47.6649C17.096 47.1643 17.019 46.7151 16.865 46.3172C16.7238 45.9065 16.4542 45.5343 16.0564 45.2006C15.6585 44.8541 15.1002 44.514 14.3814 44.1802C13.6627 43.8465 12.7321 43.5 11.5898 43.1406C10.3192 42.7299 9.11272 42.2679 7.97042 41.7545C6.84096 41.2411 5.83984 40.6443 4.96708 39.964C4.10714 39.2709 3.4269 38.4687 2.92634 37.5575C2.43862 36.6462 2.19475 35.5873 2.19475 34.3809C2.19475 33.2129 2.45145 32.154 2.96484 31.2042C3.47824 30.2416 4.19699 29.4202 5.12109 28.74C6.0452 28.0469 7.13616 27.5142 8.39397 27.142C9.66462 26.7698 11.0572 26.5837 12.5717 26.5837C14.6381 26.5837 16.4414 26.9559 17.9816 27.7003C19.5218 28.4448 20.7154 29.4651 21.5625 30.7614C22.4224 32.0578 22.8524 33.5402 22.8524 35.2087H17.1152C17.1152 34.3873 16.942 33.6685 16.5954 33.0525C16.2617 32.4235 15.7483 31.9294 15.0552 31.57C14.375 31.2107 13.5151 31.031 12.4754 31.031C11.4743 31.031 10.6401 31.185 9.97266 31.493C9.30525 31.7882 8.80469 32.1925 8.47098 32.7059C8.13728 33.2065 7.97042 33.7712 7.97042 34.4001C7.97042 34.875 8.08594 35.305 8.31696 35.69C8.56083 36.0751 8.9202 36.4344 9.39509 36.7681C9.86998 37.1018 10.454 37.4163 11.147 37.7115C11.8401 38.0067 12.6423 38.2955 13.5536 38.5778C15.0809 39.0399 16.4222 39.5597 17.5773 40.1373C18.7453 40.7148 19.7207 41.363 20.5036 42.0818C21.2866 42.8005 21.877 43.6155 22.2748 44.5268C22.6727 45.4381 22.8717 46.4713 22.8717 47.6264C22.8717 48.8457 22.6342 49.9367 22.1593 50.8993C21.6844 51.8619 20.9978 52.6769 20.0993 53.3443C19.2009 54.0117 18.1292 54.5187 16.8842 54.8652C15.6392 55.2118 14.2467 55.385 12.7065 55.385C11.3203 55.385 9.9534 55.2054 8.60575 54.846C7.25809 54.4738 6.03237 53.9155 4.92857 53.171C3.83761 52.4266 2.96484 51.4768 2.31027 50.3217C1.65569 49.1666 1.3284 47.7997 1.3284 46.221H7.12333C7.12333 47.0937 7.25809 47.8318 7.52762 48.435C7.79715 49.0382 8.17578 49.5259 8.6635 49.8982C9.16406 50.2704 9.75446 50.5399 10.4347 50.7068C11.1278 50.8736 11.885 50.957 12.7065 50.957C13.7076 50.957 14.529 50.8158 15.1708 50.5335C15.8253 50.2511 16.3066 49.8597 16.6147 49.3591C16.9355 48.8585 17.096 48.2938 17.096 47.6649ZM36.6563 34.1691V38.0965H24.5273V34.1691H36.6563ZM27.5307 29.0287H33.0753V48.7238C33.0753 49.327 33.1523 49.7891 33.3064 50.1099C33.4732 50.4308 33.7171 50.6554 34.0379 50.7838C34.3588 50.8993 34.7631 50.957 35.2508 50.957C35.5974 50.957 35.9054 50.9442 36.1749 50.9185C36.4573 50.88 36.6948 50.8415 36.8873 50.803L36.9065 54.8845C36.4316 55.0385 35.9182 55.1604 35.3664 55.2503C34.8145 55.3401 34.2048 55.385 33.5374 55.385C32.3181 55.385 31.2528 55.1861 30.3415 54.7882C29.4431 54.3775 28.75 53.7229 28.2623 52.8245C27.7746 51.9261 27.5307 50.7453 27.5307 49.2821V29.0287ZM52.135 50.0137V34.1691H57.6797V55H52.4623L52.135 50.0137ZM52.7511 45.7397L54.3876 45.7012C54.3876 47.0873 54.2271 48.3772 53.9063 49.5709C53.5854 50.7517 53.1041 51.7785 52.4623 52.6512C51.8206 53.5112 51.012 54.185 50.0366 54.6727C49.0611 55.1476 47.9124 55.385 46.5904 55.385C45.5765 55.385 44.6395 55.2439 43.7796 54.9615C42.9325 54.6663 42.2009 54.2107 41.5848 53.5946C40.9816 52.9657 40.5067 52.1635 40.1602 51.1881C39.8265 50.1998 39.6596 49.0126 39.6596 47.6264V34.1691H45.2042V47.6649C45.2042 48.281 45.2748 48.8008 45.416 49.2243C45.57 49.6479 45.7818 49.9944 46.0513 50.264C46.3209 50.5335 46.6353 50.726 46.9947 50.8415C47.3669 50.957 47.7776 51.0148 48.2268 51.0148C49.3691 51.0148 50.2676 50.7838 50.9222 50.3217C51.5896 49.8597 52.058 49.2307 52.3276 48.435C52.6099 47.6264 52.7511 46.728 52.7511 45.7397ZM74.2174 50.4565V25.4286H79.8005V55H74.7757L74.2174 50.4565ZM61.0488 44.8348V44.4305C61.0488 42.839 61.2285 41.3951 61.5879 40.0988C61.9473 38.7896 62.4735 37.6666 63.1666 36.7296C63.8597 35.7927 64.7132 35.0675 65.7271 34.5541C66.7411 34.0407 67.8962 33.784 69.1925 33.784C70.4118 33.784 71.4771 34.0407 72.3884 34.5541C73.3125 35.0675 74.0954 35.7991 74.7372 36.7489C75.3917 37.6858 75.918 38.796 76.3159 40.0795C76.7137 41.3502 77.0025 42.7427 77.1822 44.2573V45.1429C77.0025 46.5932 76.7137 47.9408 76.3159 49.1858C75.918 50.4308 75.3917 51.5218 74.7372 52.4587C74.0954 53.3828 73.3125 54.1016 72.3884 54.615C71.4643 55.1283 70.3862 55.385 69.154 55.385C67.8577 55.385 66.7026 55.1219 65.6886 54.5957C64.6875 54.0695 63.8404 53.3315 63.1473 52.3817C62.4671 51.4319 61.9473 50.3153 61.5879 49.0318C61.2285 47.7483 61.0488 46.3493 61.0488 44.8348ZM66.5935 44.4305V44.8348C66.5935 45.6948 66.6577 46.4969 66.786 47.2414C66.9272 47.9858 67.1518 48.6468 67.4598 49.2243C67.7807 49.7891 68.1914 50.2319 68.692 50.5527C69.2054 50.8608 69.8279 51.0148 70.5594 51.0148C71.5092 51.0148 72.2921 50.803 72.9082 50.3795C73.5243 49.9431 73.9928 49.3463 74.3136 48.589C74.6473 47.8318 74.8399 46.959 74.8912 45.9707V43.4487C74.8527 42.6401 74.7372 41.9149 74.5446 41.2732C74.365 40.6186 74.0954 40.0603 73.7361 39.5982C73.3895 39.1362 72.9531 38.7768 72.4269 38.5201C71.9135 38.2634 71.3039 38.135 70.5979 38.135C69.8792 38.135 69.2631 38.3019 68.7497 38.6356C68.2363 38.9565 67.8192 39.3993 67.4983 39.964C67.1903 40.5287 66.9593 41.1961 66.8053 41.9662C66.6641 42.7235 66.5935 43.5449 66.5935 44.4305ZM93.7199 55.385C92.1027 55.385 90.6524 55.1283 89.3689 54.615C88.0854 54.0887 86.9944 53.3636 86.096 52.4395C85.2104 51.5153 84.5301 50.4436 84.0553 49.2243C83.5804 47.9922 83.3429 46.683 83.3429 45.2969V44.5268C83.3429 42.9481 83.5675 41.5042 84.0167 40.195C84.466 38.8859 85.1077 37.75 85.942 36.7874C86.7891 35.8248 87.8159 35.0868 89.0223 34.5734C90.2288 34.0472 91.5893 33.784 93.1038 33.784C94.5798 33.784 95.889 34.0279 97.0313 34.5156C98.1736 35.0033 99.1298 35.6964 99.8998 36.5949C100.683 37.4933 101.273 38.5714 101.671 39.8292C102.069 41.0742 102.268 42.4604 102.268 43.9877V46.298H85.7109V42.6016H96.8195V42.178C96.8195 41.4079 96.6783 40.7213 96.3959 40.118C96.1264 39.502 95.7157 39.0142 95.1638 38.6549C94.6119 38.2955 93.906 38.1158 93.046 38.1158C92.3145 38.1158 91.6856 38.2762 91.1593 38.5971C90.6331 38.918 90.2031 39.3672 89.8694 39.9448C89.5486 40.5223 89.3047 41.2026 89.1378 41.9855C88.9838 42.7556 88.9068 43.6027 88.9068 44.5268V45.2969C88.9068 46.1311 89.0223 46.9012 89.2534 47.6071C89.4972 48.3131 89.8373 48.9227 90.2737 49.4361C90.7229 49.9495 91.262 50.3474 91.8909 50.6297C92.5327 50.9121 93.2578 51.0533 94.0664 51.0533C95.0675 51.0533 95.9981 50.8608 96.858 50.4757C97.7308 50.0778 98.4816 49.481 99.1105 48.6853L101.806 51.6116C101.369 52.2405 100.773 52.8437 100.015 53.4213C99.2709 53.9989 98.3725 54.4738 97.32 54.846C96.2676 55.2054 95.0675 55.385 93.7199 55.385ZM110.854 38.6163V55H105.31V34.1691H110.508L110.854 38.6163ZM110.046 43.853H108.544C108.544 42.3128 108.743 40.9266 109.141 39.6945C109.539 38.4495 110.097 37.3906 110.816 36.5179C111.535 35.6323 112.388 34.9584 113.376 34.4964C114.378 34.0215 115.494 33.784 116.726 33.784C117.702 33.784 118.594 33.9252 119.402 34.2076C120.211 34.49 120.904 34.9392 121.482 35.5552C122.072 36.1713 122.521 36.9863 122.829 38.0003C123.15 39.0142 123.311 40.2528 123.311 41.716V55H117.727V41.6967C117.727 40.7726 117.599 40.0538 117.342 39.5405C117.086 39.0271 116.707 38.6677 116.206 38.4623C115.719 38.2441 115.116 38.135 114.397 38.135C113.652 38.135 113.004 38.2826 112.452 38.5778C111.913 38.873 111.464 39.2838 111.105 39.81C110.758 40.3234 110.495 40.9266 110.315 41.6197C110.136 42.3128 110.046 43.0572 110.046 43.853ZM137.73 34.1691V38.0965H125.602V34.1691H137.73ZM128.605 29.0287H134.15V48.7238C134.15 49.327 134.227 49.7891 134.381 50.1099C134.547 50.4308 134.791 50.6554 135.112 50.7838C135.433 50.8993 135.837 50.957 136.325 50.957C136.672 50.957 136.98 50.9442 137.249 50.9185C137.532 50.88 137.769 50.8415 137.962 50.803L137.981 54.8845C137.506 55.0385 136.992 55.1604 136.441 55.2503C135.889 55.3401 135.279 55.385 134.612 55.385C133.392 55.385 132.327 55.1861 131.416 54.7882C130.517 54.3775 129.824 53.7229 129.337 52.8245C128.849 51.9261 128.605 50.7453 128.605 49.2821V29.0287ZM147.992 50.5527L153.575 26.9687H156.694L157.406 30.8962L151.457 55H148.107L147.992 50.5527ZM145.123 26.9687L149.744 50.5527L149.359 55H145.624L139.405 26.9687H145.123ZM162.316 50.4565L166.878 26.9687H172.596L166.397 55H162.662L162.316 50.4565ZM158.446 26.9687L164.068 50.649L163.914 55H160.564L154.576 30.877L155.346 26.9687H158.446ZM173.886 44.7963V44.392C173.886 42.8647 174.104 41.4593 174.541 40.1758C174.977 38.8795 175.612 37.7564 176.447 36.8066C177.281 35.8569 178.308 35.1189 179.527 34.5926C180.746 34.0536 182.145 33.784 183.724 33.784C185.303 33.784 186.708 34.0536 187.94 34.5926C189.172 35.1189 190.206 35.8569 191.04 36.8066C191.887 37.7564 192.529 38.8795 192.965 40.1758C193.402 41.4593 193.62 42.8647 193.62 44.392V44.7963C193.62 46.3108 193.402 47.7162 192.965 49.0126C192.529 50.296 191.887 51.4191 191.04 52.3817C190.206 53.3315 189.179 54.0695 187.96 54.5957C186.74 55.1219 185.341 55.385 183.763 55.385C182.184 55.385 180.778 55.1219 179.546 54.5957C178.327 54.0695 177.294 53.3315 176.447 52.3817C175.612 51.4191 174.977 50.296 174.541 49.0126C174.104 47.7162 173.886 46.3108 173.886 44.7963ZM179.431 44.392V44.7963C179.431 45.6691 179.508 46.4841 179.662 47.2414C179.816 47.9986 180.06 48.666 180.393 49.2436C180.74 49.8083 181.189 50.2511 181.741 50.572C182.293 50.8929 182.967 51.0533 183.763 51.0533C184.533 51.0533 185.194 50.8929 185.746 50.572C186.297 50.2511 186.74 49.8083 187.074 49.2436C187.408 48.666 187.652 47.9986 187.806 47.2414C187.972 46.4841 188.056 45.6691 188.056 44.7963V44.392C188.056 43.5449 187.972 42.7492 187.806 42.0047C187.652 41.2475 187.401 40.5801 187.055 40.0025C186.721 39.4121 186.278 38.9501 185.726 38.6163C185.174 38.2826 184.507 38.1158 183.724 38.1158C182.941 38.1158 182.274 38.2826 181.722 38.6163C181.183 38.9501 180.74 39.4121 180.393 40.0025C180.06 40.5801 179.816 41.2475 179.662 42.0047C179.508 42.7492 179.431 43.5449 179.431 44.392ZM202.572 38.7126V55H197.027V34.1691H202.245L202.572 38.7126ZM208.848 34.0343L208.752 39.1747C208.482 39.1362 208.155 39.1041 207.77 39.0784C207.398 39.0399 207.058 39.0206 206.75 39.0206C205.967 39.0206 205.287 39.1233 204.709 39.3287C204.144 39.5212 203.669 39.81 203.284 40.195C202.912 40.5801 202.63 41.0485 202.437 41.6004C202.258 42.1523 202.155 42.7812 202.129 43.4872L201.013 43.1406C201.013 41.793 201.147 40.5544 201.417 39.4249C201.686 38.2826 202.078 37.2879 202.591 36.4408C203.117 35.5937 203.759 34.9392 204.516 34.4771C205.274 34.0151 206.14 33.784 207.116 33.784C207.424 33.784 207.738 33.8097 208.059 33.861C208.38 33.8996 208.643 33.9573 208.848 34.0343ZM223.384 50.4565V25.4286H228.967V55H223.942L223.384 50.4565ZM210.215 44.8348V44.4305C210.215 42.839 210.395 41.3951 210.754 40.0988C211.114 38.7896 211.64 37.6666 212.333 36.7296C213.026 35.7927 213.879 35.0675 214.893 34.5541C215.907 34.0407 217.063 33.784 218.359 33.784C219.578 33.784 220.643 34.0407 221.555 34.5541C222.479 35.0675 223.262 35.7991 223.903 36.7489C224.558 37.6858 225.084 38.796 225.482 40.0795C225.88 41.3502 226.169 42.7427 226.349 44.2573V45.1429C226.169 46.5932 225.88 47.9408 225.482 49.1858C225.084 50.4308 224.558 51.5218 223.903 52.4587C223.262 53.3828 222.479 54.1016 221.555 54.615C220.631 55.1283 219.552 55.385 218.32 55.385C217.024 55.385 215.869 55.1219 214.855 54.5957C213.854 54.0695 213.007 53.3315 212.314 52.3817C211.633 51.4319 211.114 50.3153 210.754 49.0318C210.395 47.7483 210.215 46.3493 210.215 44.8348ZM215.76 44.4305V44.8348C215.76 45.6948 215.824 46.4969 215.952 47.2414C216.093 47.9858 216.318 48.6468 216.626 49.2243C216.947 49.7891 217.358 50.2319 217.858 50.5527C218.372 50.8608 218.994 51.0148 219.726 51.0148C220.676 51.0148 221.458 50.803 222.075 50.3795C222.691 49.9431 223.159 49.3463 223.48 48.589C223.814 47.8318 224.006 46.959 224.057 45.9707V43.4487C224.019 42.6401 223.903 41.9149 223.711 41.2732C223.531 40.6186 223.262 40.0603 222.902 39.5982C222.556 39.1362 222.119 38.7768 221.593 38.5201C221.08 38.2634 220.47 38.135 219.764 38.135C219.045 38.135 218.429 38.3019 217.916 38.6356C217.403 38.9565 216.986 39.3993 216.665 39.964C216.357 40.5287 216.126 41.1961 215.972 41.9662C215.83 42.7235 215.76 43.5449 215.76 44.4305Z" fill="#444444"/>
<path d="M146.302 7.09778L138.912 26.7209" stroke="#008CFF" stroke-width="4" stroke-miterlimit="10"/>
<path d="M137.568 30.2888C139.538 31.0309 141.737 30.0351 142.479 28.0646C143.222 26.0942 142.226 23.8952 140.255 23.1531C138.285 22.4109 136.086 23.4067 135.344 25.3772C134.602 27.3476 135.597 29.5466 137.568 30.2888Z" fill="#444444"/>
<path d="M152.463 12.3737L148.735 22.2727C147.621 25.2286 153.907 30.3314 162.774 33.6712C171.642 37.0111 179.732 37.3222 180.845 34.3662L184.574 24.4672" fill="white"/>
<path d="M152.463 12.3737L148.735 22.2727C147.621 25.2286 153.907 30.3314 162.774 33.6712C171.642 37.0111 179.732 37.3222 180.845 34.3662L184.574 24.4672" stroke="#008CFF" stroke-width="4" stroke-miterlimit="10"/>
<path d="M172.293 8.39831L147.194 7.43361L166.693 23.2655L191.792 24.2302L172.293 8.39831Z" fill="white" stroke="#008CFF" stroke-width="4" stroke-miterlimit="10"/>
</svg>
