<svg width="165" height="172" viewBox="0 0 165 172" fill="none" xmlns="http://www.w3.org/2000/svg">
<path d="M116.341 131.542C89.4692 150.516 53.0832 162.33 34.1338 135.493C26.0629 124.063 38.7923 77.6454 39.5464 64.6772C40.5628 47.1977 32.2925 45.2485 47.7192 34.3558C61.0504 24.9427 70.0328 36.8119 84.9449 39.2795C100.092 41.7859 121.138 35.0696 130.687 48.5929C139.989 61.7668 121.236 80.8478 118.893 95.6189C116.462 110.939 130.022 121.882 116.341 131.542Z" fill="#008CFF"/>
<path d="M110.577 98.4994C110.421 98.0543 110.001 97.7563 109.53 97.7563H98.9569V64.4102C98.9569 63.7976 98.4604 63.301 97.8477 63.301H57.93C57.3175 63.301 56.8209 63.7976 56.8209 64.4102V97.7563H46.2476C45.7761 97.7563 45.3562 98.0543 45.2005 98.4994C45.0449 98.9444 45.1876 99.4393 45.5563 99.733L77.1977 124.939C77.3999 125.1 77.6443 125.181 77.8888 125.181C78.1333 125.181 78.3777 125.101 78.5799 124.939L110.221 99.733C110.59 99.4393 110.732 98.9446 110.577 98.4994ZM77.8888 122.654L49.4199 99.9746H57.93C58.5426 99.9746 59.0392 99.478 59.0392 98.8654V65.5194H96.7385V98.8654C96.7385 99.478 97.235 99.9746 97.8477 99.9746H106.358L77.8888 122.654Z" fill="white"/>
<path d="M68.2043 86.8379H72.2459C72.8585 86.8379 73.3551 86.3412 73.3551 85.7287C73.3551 85.1161 72.8585 84.6195 72.2459 84.6195H69.3134V77.6455C69.3134 77.033 68.8168 76.5364 68.2043 76.5364C67.5917 76.5364 67.0951 77.033 67.0951 77.6455V85.7287C67.0951 86.3412 67.5917 86.8379 68.2043 86.8379Z" fill="white"/>
<path d="M87.8936 86.7907C88.362 86.6493 88.6824 86.2179 88.6824 85.7287V77.6455C88.6824 77.033 88.186 76.5364 87.5733 76.5364C86.9606 76.5364 86.4641 77.033 86.4641 77.6455V82.0513L85.8138 81.0714C85.6083 80.7617 85.2615 80.5755 84.8897 80.5755C84.5179 80.5755 84.1711 80.7617 83.9655 81.0714L83.3153 82.0513V77.6455C83.3153 77.033 82.8188 76.5364 82.2061 76.5364C81.5934 76.5364 81.0969 77.033 81.0969 77.6455V85.7287C81.0969 86.2179 81.4174 86.6493 81.8858 86.7907C82.3546 86.9321 82.8601 86.7496 83.1302 86.342L84.8897 83.6905L86.6491 86.342C86.8584 86.6574 87.2086 86.838 87.5734 86.838C87.6799 86.838 87.7877 86.8226 87.8936 86.7907Z" fill="white"/>
<path d="M76.7723 76.5364C75.0464 76.5364 73.6422 77.9404 73.6422 79.6663V83.7079C73.6422 85.4338 75.0463 86.838 76.7723 86.838C78.4983 86.838 79.9023 85.4338 79.9023 83.7079V79.6663C79.9022 77.9404 78.4981 76.5364 76.7723 76.5364ZM77.6839 83.7078C77.6839 84.2105 77.2748 84.6195 76.7721 84.6195C76.2695 84.6195 75.8604 84.2105 75.8604 83.7078V79.6663C75.8604 79.1636 76.2695 78.7547 76.7721 78.7547C77.2748 78.7547 77.6839 79.1636 77.6839 79.6663V83.7078Z" fill="white"/>
<path d="M92.6713 94.0086C93.284 94.0086 93.7805 93.512 93.7805 92.8994C93.7805 92.2869 93.284 91.7903 92.6713 91.7903H88.6297C88.017 91.7903 87.5205 92.2869 87.5205 92.8994V100.983C87.5205 101.595 88.017 102.092 88.6297 102.092H92.6713C93.284 102.092 93.7805 101.595 93.7805 100.983C93.7805 100.37 93.284 99.8734 92.6713 99.8734H89.7388V98.0501H90.9095C91.5222 98.0501 92.0187 97.5535 92.0187 96.941C92.0187 96.3284 91.5222 95.8318 90.9095 95.8318H89.7388V94.0085H92.6713V94.0086Z" fill="white"/>
<path d="M78.1901 91.7903C77.5774 91.7903 77.0809 92.2869 77.0809 92.8994V100.983C77.0809 101.595 77.5774 102.092 78.1901 102.092C78.8028 102.092 79.2993 101.595 79.2993 100.983V92.8994C79.2993 92.2869 78.8028 91.7903 78.1901 91.7903Z" fill="white"/>
<path d="M85.391 94.0086C86.0037 94.0086 86.5002 93.512 86.5002 92.8994C86.5002 92.2869 86.0037 91.7903 85.391 91.7903C82.551 91.7903 80.2404 94.1009 80.2404 96.9411C80.2404 99.7813 82.551 102.092 85.391 102.092C86.0037 102.092 86.5002 101.595 86.5002 100.983C86.5002 100.37 86.0037 99.8736 85.391 99.8736C83.774 99.8736 82.4587 98.5581 82.4587 96.9411C82.4587 95.3241 83.7742 94.0086 85.391 94.0086Z" fill="white"/>
<path d="M65.127 91.7903H63.1062C62.4937 91.7903 61.9971 92.2869 61.9971 92.8994V100.983C61.9971 101.595 62.4937 102.092 63.1062 102.092C63.7188 102.092 64.2154 101.595 64.2154 100.983V98.0501H65.127C66.8528 98.0501 68.257 96.6461 68.257 94.9202C68.257 93.1943 66.8528 91.7903 65.127 91.7903ZM65.127 95.8319H64.2154V94.0086H65.127C65.6297 94.0086 66.0387 94.4177 66.0387 94.9203C66.0387 95.423 65.6297 95.8319 65.127 95.8319Z" fill="white"/>
<path d="M72.8658 97.9845C74.2855 97.6881 75.3553 96.4267 75.3553 94.9203C75.3553 93.1945 73.9513 91.7903 72.2253 91.7903H70.2045C69.5919 91.7903 69.0953 92.2869 69.0953 92.8994V96.9322C69.0953 96.938 69.0953 96.9438 69.0953 96.9495V100.983C69.0953 101.595 69.5919 102.092 70.2045 102.092C70.8171 102.092 71.3137 101.595 71.3137 100.983V99.5695L73.5809 101.777C74.0197 102.205 74.7222 102.196 75.1493 101.757C75.5767 101.318 75.5674 100.615 75.1285 100.188L72.8658 97.9845ZM71.3137 95.8321V94.0088H72.2253C72.7279 94.0088 73.137 94.4178 73.137 94.9205C73.137 95.4232 72.7279 95.8321 72.2253 95.8321H71.3137Z" fill="white"/>
</svg>
