<svg width="261" height="257" viewBox="0 0 261 257" fill="none" xmlns="http://www.w3.org/2000/svg">
<path d="M187.531 196.808C147.326 225.196 92.8869 242.873 64.5354 202.72C52.4599 185.618 71.5053 116.17 72.6335 96.7677C74.1542 70.6155 61.7804 67.6992 84.8614 51.4019C104.807 37.3185 118.246 55.0767 140.557 58.7686C163.219 62.5186 194.708 52.4699 208.994 72.703C222.912 92.4134 194.855 120.962 191.348 143.062C187.712 165.982 208 182.355 187.531 196.808Z" fill="#008CFF"/>
<path d="M178.907 147.371C178.674 146.705 178.046 146.259 177.34 146.259H161.521V96.368C161.521 95.4515 160.779 94.7085 159.862 94.7085H100.138C99.2219 94.7085 98.4789 95.4515 98.4789 96.368V146.259H82.6595C81.9541 146.259 81.3259 146.705 81.0929 147.371C80.8601 148.037 81.0737 148.777 81.6253 149.217L128.966 186.93C129.268 187.171 129.634 187.291 130 187.291C130.366 187.291 130.731 187.171 131.034 186.93L178.374 149.217C178.926 148.777 179.14 148.037 178.907 147.371ZM130 183.51L87.4059 149.578H100.138C101.055 149.578 101.798 148.835 101.798 147.919V98.0275H158.202V147.919C158.202 148.835 158.945 149.578 159.862 149.578H172.594L130 183.51Z" fill="white"/>
<path d="M115.51 129.923H121.557C122.474 129.923 123.217 129.18 123.217 128.264C123.217 127.347 122.474 126.604 121.557 126.604H117.17V116.17C117.17 115.254 116.427 114.511 115.51 114.511C114.594 114.511 113.851 115.254 113.851 116.17V128.264C113.851 129.18 114.594 129.923 115.51 129.923Z" fill="white"/>
<path d="M144.969 129.853C145.67 129.641 146.149 128.996 146.149 128.264V116.17C146.149 115.254 145.406 114.511 144.49 114.511C143.573 114.511 142.83 115.254 142.83 116.17V122.762L141.857 121.296C141.55 120.833 141.031 120.554 140.475 120.554C139.918 120.554 139.399 120.833 139.092 121.296L138.119 122.762V116.17C138.119 115.254 137.376 114.511 136.459 114.511C135.543 114.511 134.8 115.254 134.8 116.17V128.264C134.8 128.996 135.279 129.641 135.98 129.853C136.682 130.064 137.438 129.791 137.842 129.182L140.475 125.214L143.107 129.182C143.42 129.654 143.944 129.924 144.49 129.924C144.649 129.924 144.81 129.901 144.969 129.853Z" fill="white"/>
<path d="M128.33 114.511C125.747 114.511 123.647 116.611 123.647 119.194V125.241C123.647 127.823 125.747 129.924 128.33 129.924C130.912 129.924 133.013 127.823 133.013 125.241V119.194C133.013 116.611 130.912 114.511 128.33 114.511ZM129.694 125.24C129.694 125.992 129.082 126.604 128.329 126.604C127.577 126.604 126.965 125.992 126.965 125.24V119.194C126.965 118.442 127.577 117.83 128.329 117.83C129.082 117.83 129.694 118.442 129.694 119.194V125.24Z" fill="white"/>
<path d="M152.117 140.652C153.034 140.652 153.777 139.909 153.777 138.993C153.777 138.077 153.034 137.333 152.117 137.333H146.07C145.153 137.333 144.411 138.077 144.411 138.993V151.087C144.411 152.003 145.153 152.746 146.07 152.746H152.117C153.034 152.746 153.777 152.003 153.777 151.087C153.777 150.17 153.034 149.427 152.117 149.427H147.73V146.699H149.481C150.398 146.699 151.141 145.956 151.141 145.04C151.141 144.123 150.398 143.38 149.481 143.38H147.73V140.652H152.117V140.652Z" fill="white"/>
<path d="M130.451 137.333C129.534 137.333 128.791 138.077 128.791 138.993V151.087C128.791 152.003 129.534 152.746 130.451 152.746C131.368 152.746 132.11 152.003 132.11 151.087V138.993C132.11 138.077 131.368 137.333 130.451 137.333Z" fill="white"/>
<path d="M141.225 140.652C142.142 140.652 142.884 139.909 142.884 138.993C142.884 138.077 142.142 137.333 141.225 137.333C136.976 137.333 133.519 140.791 133.519 145.04C133.519 149.289 136.976 152.746 141.225 152.746C142.142 152.746 142.884 152.003 142.884 151.087C142.884 150.17 142.142 149.427 141.225 149.427C138.805 149.427 136.838 147.459 136.838 145.04C136.838 142.621 138.806 140.652 141.225 140.652Z" fill="white"/>
<path d="M110.906 137.333H107.883C106.966 137.333 106.223 138.077 106.223 138.993V151.087C106.223 152.003 106.966 152.746 107.883 152.746C108.799 152.746 109.542 152.003 109.542 151.087V146.699H110.906C113.488 146.699 115.589 144.599 115.589 142.016C115.589 139.434 113.488 137.333 110.906 137.333ZM110.906 143.38H109.542V140.652H110.906C111.658 140.652 112.27 141.265 112.27 142.017C112.27 142.769 111.658 143.38 110.906 143.38Z" fill="white"/>
<path d="M122.485 146.601C124.609 146.158 126.209 144.27 126.209 142.017C126.209 139.434 124.109 137.333 121.526 137.333H118.503C117.587 137.333 116.844 138.077 116.844 138.993V145.027C116.844 145.035 116.844 145.044 116.844 145.053V151.087C116.844 152.003 117.587 152.746 118.503 152.746C119.419 152.746 120.162 152.003 120.162 151.087V148.973L123.555 152.276C124.211 152.915 125.262 152.902 125.901 152.245C126.541 151.588 126.527 150.537 125.87 149.898L122.485 146.601ZM120.162 143.381V140.653H121.526C122.278 140.653 122.89 141.265 122.89 142.017C122.89 142.769 122.278 143.381 121.526 143.381H120.162Z" fill="white"/>
</svg>
