<svg width="138" height="128" viewBox="0 0 138 128" fill="none" xmlns="http://www.w3.org/2000/svg">
<path d="M77.3199 124.632C43.8601 126.214 6.15057 116.441 4.57017 83.0252C3.89704 68.7926 40.2354 35.905 47.9816 25.1826C58.4224 10.7303 52.3881 4.52963 71.5967 3.62117C88.1961 2.83611 89.4116 17.9443 100.865 28.2258C112.499 38.6691 134.246 44.4227 135.043 61.2612C135.818 77.6648 109.272 83.7835 99.1742 95.1838C88.7014 107.007 94.3547 123.826 77.3199 124.632Z" fill="#008CFF"/>
<path fill-rule="evenodd" clip-rule="evenodd" d="M55.5239 62.875C57.4569 62.875 59.0239 61.308 59.0239 59.375C59.0239 57.442 57.4569 55.875 55.5239 55.875C53.5909 55.875 52.0239 57.442 52.0239 59.375C52.0239 61.308 53.5909 62.875 55.5239 62.875ZM55.5239 69.875C61.3229 69.875 66.0239 65.174 66.0239 59.375C66.0239 53.576 61.3229 48.875 55.5239 48.875C49.725 48.875 45.0239 53.576 45.0239 59.375C45.0239 65.174 49.725 69.875 55.5239 69.875Z" fill="white"/>
<path fill-rule="evenodd" clip-rule="evenodd" d="M55.6993 72.5C52.7997 72.5 50.4491 74.8506 50.4491 77.75L50.4491 83C50.4491 84.9331 48.8821 86.5 46.9491 86.5C45.0161 86.5 43.4491 84.9331 43.4491 83L43.4491 77.75C43.4492 70.9845 48.9337 65.5 55.6993 65.5C62.4647 65.5 67.9492 70.9845 67.9492 77.75V79.5C67.9492 81.4331 66.3822 83 64.4492 83C62.5162 83 60.9492 81.4331 60.9492 79.5V77.75C60.9492 74.8506 58.5987 72.5 55.6993 72.5Z" fill="white"/>
<path fill-rule="evenodd" clip-rule="evenodd" d="M87.0243 62.875C85.0912 62.875 83.5243 61.308 83.5243 59.375C83.5243 57.442 85.0912 55.875 87.0243 55.875C88.957 55.875 90.5243 57.442 90.5243 59.375C90.5243 61.308 88.957 62.875 87.0243 62.875ZM87.0243 69.875C81.2251 69.875 76.5243 65.174 76.5243 59.375C76.5243 53.576 81.2251 48.875 87.0243 48.875C92.8231 48.875 97.5243 53.576 97.5243 59.375C97.5243 65.174 92.8231 69.875 87.0243 69.875Z" fill="white"/>
<path fill-rule="evenodd" clip-rule="evenodd" d="M86.8489 72.5C89.7483 72.5 92.0989 74.8506 92.0989 77.75V83C92.0989 84.9331 93.6658 86.5 95.5989 86.5C97.5319 86.5 99.0989 84.9331 99.0989 83V77.75C99.0989 70.9845 93.6144 65.5 86.8489 65.5C80.0834 65.5 74.5989 70.9845 74.5989 77.75V79.5C74.5989 81.4331 76.1658 83 78.0989 83C80.0319 83 81.5989 81.4331 81.5989 79.5V77.75C81.5989 74.8506 83.9495 72.5 86.8489 72.5Z" fill="white"/>
<path fill-rule="evenodd" clip-rule="evenodd" d="M71.4493 82.125C68.5497 82.125 66.1991 84.4756 66.1991 87.375L66.1991 92.625C66.1991 94.5581 64.6321 96.125 62.6991 96.125C60.7661 96.125 59.1991 94.5581 59.1991 92.625L59.1991 87.375C59.1992 80.6095 64.6837 75.125 71.4493 75.125C78.2148 75.125 83.6993 80.6095 83.6993 87.375V92.625C83.6993 94.5581 82.1323 96.125 80.1993 96.125C78.2662 96.125 76.6993 94.5581 76.6993 92.625V87.375C76.6993 84.4756 74.3487 82.125 71.4493 82.125Z" fill="white"/>
<path d="M81.7739 69C81.7739 74.7992 77.0731 79.5 71.2739 79.5C65.475 79.5 60.7739 74.7992 60.7739 69C60.7739 63.201 65.475 58.5 71.2739 58.5C77.0731 58.5 81.7739 63.201 81.7739 69Z" fill="#008CFF"/>
<path fill-rule="evenodd" clip-rule="evenodd" d="M71.2739 72.5C73.207 72.5 74.7739 70.9331 74.7739 69C74.7739 67.067 73.207 65.5 71.2739 65.5C69.3409 65.5 67.7739 67.067 67.7739 69C67.7739 70.9331 69.3409 72.5 71.2739 72.5ZM71.2739 79.5C77.0731 79.5 81.7739 74.7992 81.7739 69C81.7739 63.201 77.0731 58.5 71.2739 58.5C65.475 58.5 60.7739 63.201 60.7739 69C60.7739 74.7992 65.475 79.5 71.2739 79.5Z" fill="white"/>
</svg>
