<svg width="261" height="257" viewBox="0 0 261 257" fill="none" xmlns="http://www.w3.org/2000/svg">
<path d="M187.531 196.808C147.326 225.196 92.8869 242.873 64.5354 202.72C52.4599 185.618 71.5053 116.17 72.6335 96.7677C74.1542 70.6155 61.7804 67.6992 84.8614 51.4019C104.807 37.3185 118.246 55.0767 140.557 58.7686C163.219 62.5186 194.708 52.4699 208.994 72.703C222.912 92.4134 194.855 120.962 191.348 143.062C187.712 165.982 208 182.355 187.531 196.808Z" fill="#008CFF"/>
<path fill-rule="evenodd" clip-rule="evenodd" d="M109.325 126.487C112.169 126.487 114.475 124.182 114.475 121.337C114.475 118.493 112.169 116.187 109.325 116.187C106.481 116.187 104.175 118.493 104.175 121.337C104.175 124.182 106.481 126.487 109.325 126.487ZM109.325 136.787C117.858 136.787 124.775 129.87 124.775 121.337C124.775 112.805 117.858 105.887 109.325 105.887C100.792 105.887 93.875 112.805 93.875 121.337C93.875 129.87 100.792 136.787 109.325 136.787Z" fill="white"/>
<path fill-rule="evenodd" clip-rule="evenodd" d="M109.583 140.65C105.316 140.65 101.858 144.109 101.858 148.375L101.858 156.1C101.858 158.944 99.552 161.25 96.7077 161.25C93.8635 161.25 91.5578 158.944 91.5578 156.1L91.5578 148.375C91.5579 138.42 99.628 130.35 109.583 130.35C119.538 130.35 127.608 138.42 127.608 148.375V150.95C127.608 153.794 125.302 156.1 122.458 156.1C119.614 156.1 117.308 153.794 117.308 150.95V148.375C117.308 144.109 113.849 140.65 109.583 140.65Z" fill="white"/>
<path fill-rule="evenodd" clip-rule="evenodd" d="M155.676 126.487C152.831 126.487 150.526 124.182 150.526 121.337C150.526 118.493 152.831 116.187 155.676 116.187C158.519 116.187 160.826 118.493 160.826 121.337C160.826 124.182 158.519 126.487 155.676 126.487ZM155.676 136.787C147.142 136.787 140.226 129.87 140.226 121.337C140.226 112.805 147.142 105.887 155.676 105.887C164.208 105.887 171.126 112.805 171.126 121.337C171.126 129.87 164.208 136.787 155.676 136.787Z" fill="white"/>
<path fill-rule="evenodd" clip-rule="evenodd" d="M155.417 140.65C159.684 140.65 163.142 144.109 163.142 148.375V156.1C163.142 158.944 165.448 161.25 168.293 161.25C171.137 161.25 173.443 158.944 173.443 156.1V148.375C173.443 138.42 165.372 130.35 155.417 130.35C145.463 130.35 137.393 138.42 137.393 148.375V150.95C137.393 153.794 139.698 156.1 142.543 156.1C145.387 156.1 147.693 153.794 147.693 150.95V148.375C147.693 144.109 151.151 140.65 155.417 140.65Z" fill="white"/>
<path fill-rule="evenodd" clip-rule="evenodd" d="M132.758 154.812C128.491 154.812 125.033 158.271 125.033 162.537L125.033 170.262C125.033 173.107 122.727 175.412 119.883 175.412C117.038 175.412 114.733 173.107 114.733 170.262L114.733 162.537C114.733 152.583 122.803 144.512 132.758 144.512C142.713 144.512 150.783 152.583 150.783 162.537V170.262C150.783 173.107 148.477 175.412 145.633 175.412C142.789 175.412 140.483 173.107 140.483 170.262V162.537C140.483 158.271 137.024 154.812 132.758 154.812Z" fill="white"/>
<path d="M147.95 135.5C147.95 144.033 141.033 150.95 132.5 150.95C123.967 150.95 117.05 144.033 117.05 135.5C117.05 126.967 123.967 120.05 132.5 120.05C141.033 120.05 147.95 126.967 147.95 135.5Z" fill="#008CFF"/>
<path fill-rule="evenodd" clip-rule="evenodd" d="M132.5 140.65C135.344 140.65 137.65 138.344 137.65 135.5C137.65 132.656 135.344 130.35 132.5 130.35C129.656 130.35 127.35 132.656 127.35 135.5C127.35 138.344 129.656 140.65 132.5 140.65ZM132.5 150.95C141.033 150.95 147.95 144.033 147.95 135.5C147.95 126.967 141.033 120.05 132.5 120.05C123.967 120.05 117.05 126.967 117.05 135.5C117.05 144.033 123.967 150.95 132.5 150.95Z" fill="white"/>
</svg>
