<svg width="162" height="173" viewBox="0 0 162 173" fill="none" xmlns="http://www.w3.org/2000/svg">
<path d="M22.9789 60.7264C39.5357 32.049 67.8082 5.90245 96.4482 22.4378C108.647 29.4805 116.592 77.2745 121.373 89.4454C127.817 105.85 136.198 104.143 126.693 120.606C118.48 134.833 105.263 127.774 90.593 131.809C75.6919 135.907 59.2891 150.923 44.8573 142.591C30.7983 134.474 39.889 109.124 35.8001 94.6352C31.5593 79.6081 14.5495 75.3264 22.9789 60.7264Z" fill="#008CFF"/>
<path d="M103.213 70.3975C103.105 69.6239 102.549 68.9876 101.796 68.7784L77.6811 62.072C77.3373 61.9763 76.9742 61.9763 76.6301 62.072L52.5151 68.7784C51.7627 68.9876 51.2061 69.6236 51.0984 70.3975C50.9585 71.4032 47.7676 95.1669 55.9519 106.989C64.1266 118.796 76.1859 121.822 76.6952 121.945C76.8466 121.982 77.0008 122 77.1556 122C77.3104 122 77.4646 121.982 77.616 121.945C78.1255 121.822 90.1849 118.796 98.3593 106.989C106.544 95.1672 103.353 71.4035 103.213 70.3975ZM92.7067 84.271L76.2578 100.72C75.8751 101.103 75.3731 101.294 74.8714 101.294C74.3697 101.294 73.8678 101.103 73.485 100.72L63.3148 90.5497C62.947 90.1821 62.7404 89.6832 62.7404 89.1632C62.7404 88.6432 62.9472 88.1444 63.3148 87.7768L65.3342 85.7575C66.0999 84.992 67.3415 84.9917 68.107 85.7575L74.8714 92.5219L87.9146 79.4785C88.2821 79.1107 88.781 78.9042 89.301 78.9042C89.821 78.9042 90.3198 79.1107 90.6874 79.4785L92.7067 81.4979C93.4725 82.2636 93.4725 83.5052 92.7067 84.271Z" fill="white"/>
</svg>
