<svg width="261" height="257" viewBox="0 0 261 257" fill="none" xmlns="http://www.w3.org/2000/svg">
<path d="M187.531 196.808C147.326 225.196 92.8868 242.873 64.5353 202.72C52.4599 185.618 71.5053 116.17 72.6335 96.7677C74.1541 70.6155 61.7804 67.6992 84.8614 51.4019C104.807 37.3185 118.246 55.0767 140.557 58.7686C163.219 62.5186 194.708 52.4699 208.994 72.703C222.912 92.4134 194.855 120.962 191.348 143.062C187.712 165.982 208 182.355 187.531 196.808Z" fill="#008CFF"/>
<path d="M169.086 104.596C168.924 103.436 168.089 102.481 166.961 102.167L130.788 92.1079C130.273 91.9644 129.728 91.9644 129.212 92.1079L93.0392 102.167C91.9106 102.481 91.0757 103.435 90.9141 104.596C90.7043 106.105 85.918 141.75 98.1945 159.483C110.456 177.194 128.546 181.733 129.309 181.918C129.536 181.973 129.768 182 130 182C130.232 182 130.464 181.972 130.691 181.918C131.455 181.733 149.544 177.194 161.806 159.483C174.082 141.751 169.296 106.105 169.086 104.596ZM153.327 125.406L128.653 150.08C128.079 150.654 127.326 150.941 126.574 150.941C125.821 150.941 125.068 150.654 124.494 150.08L109.239 134.824C108.687 134.273 108.377 133.525 108.377 132.745C108.377 131.965 108.687 131.217 109.239 130.665L112.268 127.636C113.416 126.488 115.279 126.487 116.427 127.636L126.574 137.783L146.138 118.218C146.69 117.666 147.438 117.356 148.218 117.356C148.998 117.356 149.746 117.666 150.298 118.218L153.327 121.247C154.475 122.395 154.475 124.258 153.327 125.406Z" fill="white"/>
</svg>
