<svg width="105" height="113" viewBox="0 0 105 113" fill="none" xmlns="http://www.w3.org/2000/svg">
<path d="M101.992 55.5656C100.459 82.693 89.4083 112.296 62.3162 110.765C50.7771 110.113 27.2951 78.0349 19.295 70.8852C8.5118 61.2483 3.00256 65.5961 3.88241 50.0227C4.64274 36.5648 16.9338 36.8526 26.1903 28.4755C35.5924 19.9667 42.0603 2.90421 55.7121 3.6755C69.0113 4.42686 71.7188 26.3577 80.0685 35.4615C88.7283 44.9034 102.772 41.7546 101.992 55.5656Z" fill="#008CFF"/>
<path fill-rule="evenodd" clip-rule="evenodd" d="M51.5274 38.2183C52.0813 37.9722 52.7024 37.937 53.2755 38.1128L53.5575 38.2183L76.0575 48.2152C76.9625 48.6173 77.536 49.5099 77.5425 50.4823L77.5272 50.776L76.0961 63.6551C75.3647 70.2382 71.7722 76.1509 66.2986 79.8352L65.6587 80.2503L53.8674 87.6199C53.1468 88.0702 52.254 88.1203 51.4951 87.77L51.2174 87.6199L39.4262 80.2503C33.8093 76.7398 30.0359 70.9409 29.0858 64.4116L28.9887 63.6551L27.5577 50.776C27.4484 49.7918 27.9298 48.8462 28.7661 48.3502L29.0274 48.2152L51.5274 38.2183ZM52.5424 43.2386L32.7292 52.0418L33.9582 63.1029C34.5233 68.1889 37.284 72.7604 41.4932 75.6297L42.0761 76.0103L52.5424 82.5518L63.0087 76.0103C67.3482 73.2982 70.273 68.8299 71.0361 63.7931L71.1267 63.1029L72.3557 52.0418L52.5424 43.2386ZM58.0765 53.9554C58.9296 52.8698 60.5012 52.6812 61.5869 53.5342C62.5891 54.3216 62.8268 55.7213 62.1866 56.7859L62.0081 57.0445L52.0082 69.5444C51.1483 70.6388 49.5799 70.807 48.5117 69.9769L48.2746 69.7676L43.2747 64.7677C42.2984 63.7914 42.2984 62.2085 43.2747 61.2322C44.1759 60.3309 45.594 60.2616 46.5747 61.0242L46.8102 61.2322L49.8176 64.2395L58.0765 53.9554Z" fill="white"/>
</svg>
