<svg width="261" height="257" viewBox="0 0 261 257" fill="none" xmlns="http://www.w3.org/2000/svg">
<path d="M187.531 196.808C147.326 225.196 92.8868 242.873 64.5353 202.72C52.4599 185.618 71.5053 116.17 72.6335 96.7677C74.1541 70.6155 61.7804 67.6992 84.8614 51.4019C104.807 37.3185 118.246 55.0767 140.557 58.7686C163.219 62.5186 194.708 52.4699 208.994 72.703C222.912 92.4134 194.855 120.962 191.348 143.062C187.712 165.982 208 182.355 187.531 196.808Z" fill="#008CFF"/>
<path fill-rule="evenodd" clip-rule="evenodd" d="M128.173 94.393C129.17 93.95 130.288 93.8867 131.32 94.2031L131.827 94.393L172.327 112.388C173.956 113.111 174.989 114.718 175 116.468L174.973 116.997L172.397 140.179C171.08 152.029 164.614 162.672 154.761 169.303L153.609 170.051L132.385 183.316C131.088 184.127 129.481 184.217 128.115 183.586L127.615 183.316L106.391 170.051C96.2804 163.732 89.4882 153.294 87.778 141.541L87.6034 140.179L85.0276 116.997C84.8307 115.225 85.6972 113.523 87.2025 112.63L87.6729 112.388L128.173 94.393ZM130 103.43L94.3361 119.275L96.5483 139.185C97.5655 148.34 102.535 156.569 110.111 161.734L111.161 162.419L130 174.193L148.839 162.419C156.65 157.537 161.915 149.494 163.289 140.428L163.452 139.185L165.664 119.275L130 103.43ZM139.961 122.72C141.497 120.766 144.326 120.426 146.28 121.962C148.084 123.379 148.512 125.898 147.359 127.815L147.038 128.28L129.038 150.78C127.491 152.75 124.668 153.053 122.745 151.559L122.318 151.182L113.318 142.182C111.561 140.425 111.561 137.575 113.318 135.818C114.94 134.196 117.493 134.071 119.258 135.444L119.682 135.818L125.095 141.231L139.961 122.72Z" fill="white"/>
</svg>
