<svg width="19" height="19" viewBox="0 0 19 19" fill="none" xmlns="http://www.w3.org/2000/svg">
<path d="M9.5 0C4.24416 0 0 4.2572 0 9.5C0 14.7488 4.25198 19 9.5 19C14.7716 19 19 14.7287 19 9.5C19 4.24486 14.7397 0 9.5 0ZM14.3887 15.0953C13.0345 16.282 11.3172 16.9303 9.5 16.9303C7.68312 16.9303 5.96608 16.2822 4.61203 15.0959C4.42886 14.9355 4.34607 14.6889 4.39492 14.4503C4.86268 12.1655 6.31798 10.3637 8.17045 9.7708C7.20377 9.19857 6.5403 8.02293 6.5403 6.66449C6.5403 4.74412 7.86542 3.18736 9.5 3.18736C11.1346 3.18736 12.4597 4.74412 12.4597 6.66449C12.4597 8.02272 11.7964 9.19819 10.83 9.77051C12.6825 10.3632 14.1378 12.1651 14.6057 14.4496C14.6545 14.6879 14.5716 14.935 14.3887 15.0953Z" fill="#008CFF"/>
</svg>
